<svg xmlns="http://www.w3.org/2000/svg" height="24" viewBox="0 96 960 960" width="24"><path d="m648 916 112-112v92h40V736H640v40h92L620 888l28 28Zm-448 20q-33 0-56.5-23.5T120 856V296q0-33 23.5-56.5T200 216h560q33 0 56.5 23.5T840 296v268q-19-9-39-15.5t-41-9.5V296H200v560h242q3 22 9.5 42t15.5 38H200Zm0-120v40-560 243-3 280Zm80-40h163q3-21 9.5-41t14.5-39H280v80Zm0-160h244q32-30 71.5-50t84.5-27v-3H280v80Zm0-160h400v-80H280v80Zm440 560q-83 0-141.5-58.5T520 816q0-83 58.5-141.5T720 616q83 0 141.5 58.5T920 816q0 83-58.5 141.5T720 1016Z" fill="#8e8e93"/></svg>