<svg xmlns="http://www.w3.org/2000/svg" height="24" viewBox="0 96 960 960" width="24"><path d="M440 536h80V256q0-17-11.5-28.5T480 216q-17 0-28.5 11.5T440 256v280ZM200 696h560v-80H200v80Zm-58 240h98v-80q0-17 11.5-28.5T280 816q17 0 28.5 11.5T320 856v80h120v-80q0-17 11.5-28.5T480 816q17 0 28.5 11.5T520 856v80h120v-80q0-17 11.5-28.5T680 816q17 0 28.5 11.5T720 856v80h98l-40-160H182l-40 160Zm676 80H142q-39 0-63-31t-14-69l55-220v-80q0-33 23.5-56.5T200 536h160V256q0-50 35-85t85-35q50 0 85 35t35 85v280h160q33 0 56.5 23.5T840 616v80l55 220q13 38-11.5 69t-65.5 31Zm-58-400H200h560Zm-240-80h-80 80Z" fill="#8e8e93"/></svg>